<svg version="1.2" xmlns="http://www.w3.org/2000/svg" viewBox="358 70 400 400.00000000000006" width="400" height="401">
	<style>
		.s0 { fill: #328048 } 
		.s1 { fill: #e5e7eb } 
	</style>
	<g id="Layer 1">
		<path class="s0" d="m416.46 229.3q0.05 1 0.48 8.22c0.76 12.86 12.14 17.75 23.82 18.1q3.09 0.09 90.74 0.07c4.08 0 8.35 0.19 8.44 5.6q0.26 15.91-0.12 19.49-0.59 5.61-6.67 5.71-7 0.11-80.56 0.12c-12.24 0-24.59-0.63-36.2-2.99-10.22-2.08-21.99-8.59-27.05-17.43-4.16-7.28-6.39-16.94-7.05-26.59q-1.15-16.98-0.35-36.1c0.78-18.38 3.63-39.19 22.12-47.92q2.17-1.02 8.54-3.27c7.35-2.59 16.06-3.16 23.65-3.18q55.37-0.13 62.99 0.01 10.55 0.21 18.22 2.17c8.27 2.12 17.45 7.44 20.89 16.19q4.24 10.81 4.56 23.51 0.37 14.72-0.44 29.87c-0.22 4.27-1.87 7.65-6.22 7.65q-70.32-0.02-119.11 0.04-0.14 0-0.27 0.06-0.13 0.05-0.23 0.16-0.09 0.1-0.14 0.23-0.05 0.14-0.04 0.28zm0.63-24.23q34.31 0.18 88.92-0.03 1.74 0 2.86-0.87 0.1-0.08 0.17-0.17 0.08-0.09 0.14-0.2 0.06-0.11 0.1-0.22 0.04-0.12 0.05-0.24 0.51-5 0.11-11.56c-0.77-12.56-10.25-14.69-20.68-14.51q-9.95 0.17-47.26 0.07c-11.06-0.03-21.89 3.69-24.17 15.48q-1.14 5.91-1.03 11.47 0 0.16 0.06 0.3 0.06 0.14 0.17 0.25 0.12 0.11 0.26 0.17 0.14 0.06 0.3 0.06z"/>
		<path class="s0" d="m646.41 149.16q23.6-0.02 25.84 0.01c23.21 0.24 47.12 4.41 53.55 31.31q2.27 9.47 2.66 14.27 1.81 22.24 0.18 44.87-0.89 12.27-5.45 23.84c-3.37 8.57-13.41 15.46-21.66 18.32q-6.16 2.14-15.1 3.35c-13.05 1.78-26.95 1.52-39.9 1.53-12.95 0.01-26.85 0.29-39.9-1.46q-8.94-1.2-15.11-3.33c-8.25-2.84-18.3-9.71-21.69-18.28q-4.58-11.56-5.49-23.83-1.67-22.63 0.1-44.87 0.39-4.8 2.64-14.27c6.38-26.91 30.29-31.13 53.49-31.41q2.24-0.03 25.84-0.05zm-48.82 68.14c0 19.41-0.69 38.11 24.91 38.38q8.91 0.09 23.97 0.09 15.06 0 23.96-0.09c25.6-0.26 24.92-18.97 24.92-38.38 0-19.41 0.69-38.11-24.91-38.38q-8.9-0.09-23.97-0.09-15.06 0-23.96 0.09c-25.6 0.27-24.92 18.97-24.92 38.38z"/>
		<path class="s1" d="m415.96 350.63h6.73q0.25 0 0.49 0.1 0.23 0.11 0.4 0.3 0.17 0.19 0.25 0.43 0.07 0.24 0.05 0.49c-0.76 7.13-4.75 12.09-12.14 13.76-12.21 2.77-27.17 0.6-28.73-14.94-1.23-12.19-0.37-24.26 12.56-28.17 4.21-1.27 11.53-1.04 15.59-0.23 6.99 1.38 12.73 7.41 12.21 14.85q-0.01 0.17-0.08 0.31-0.07 0.15-0.2 0.27-0.12 0.11-0.27 0.17-0.15 0.06-0.32 0.06h-6.51q-0.19 0-0.37-0.06-0.17-0.07-0.31-0.19-0.15-0.12-0.24-0.28-0.09-0.17-0.12-0.35-1.26-7.74-9.34-7.78c-6.25-0.04-11.83 0.12-13.54 7.47-1.31 5.69-2.31 20.54 6.77 22.02q6.79 1.11 11.33-0.45 3.41-1.17 4.38-6.6 0.04-0.25 0.17-0.47 0.13-0.21 0.32-0.38 0.19-0.16 0.43-0.24 0.24-0.09 0.49-0.09z"/>
		<path class="s1" d="m461.93 361.49q-3.98 4.25-10.02 4.9c-6.55 0.71-14.42 0.27-18.5-4.39-3.65-4.17-4.11-10.48-1.27-15.25q3.64-6.15 12.17-6.75 7.26-0.51 17.37 0.16 0.13 0.01 0.25-0.03 0.13-0.04 0.23-0.12 0.1-0.09 0.16-0.2 0.06-0.12 0.08-0.25c0.12-0.99-0.17-1.94-0.38-3.16q-1.05-5.99-6.82-7.02c-4.33-0.77-12.81-1.02-13.67 4.55q-0.06 0.38-0.24 0.71-0.19 0.33-0.48 0.58-0.29 0.25-0.64 0.38-0.36 0.13-0.74 0.13h-5.6q-0.33 0-0.63-0.13-0.3-0.14-0.52-0.38-0.22-0.25-0.31-0.56-0.1-0.32-0.06-0.64c0.96-7.75 8.43-11.64 15.71-12.17 8.87-0.63 18.56 0.5 21.65 10 1.73 5.29 0.62 13.78 1.18 19.12 0.43 4.12-0.4 9.5 0.1 14.1q0.01 0.12-0.02 0.23-0.04 0.11-0.12 0.2-0.08 0.09-0.18 0.13-0.11 0.05-0.23 0.05h-6.13q-0.1 0-0.21-0.02-0.1-0.02-0.19-0.05-0.1-0.03-0.19-0.08-0.09-0.06-0.17-0.12-1.25-1.01-0.7-3.46 0.04-0.17-0.03-0.33-0.07-0.17-0.23-0.25-0.16-0.08-0.33-0.05-0.17 0.04-0.29 0.17zm-0.39-14.77q-3.69-0.33-9.33-0.23c-5.02 0.08-13.76-0.44-12.92 7.25q0.54 4.84 5.09 5.57 6.61 1.06 12.15-0.75c4.38-1.44 5.77-7.37 5.66-11.16q0-0.13-0.05-0.25-0.05-0.12-0.14-0.21-0.09-0.1-0.21-0.15-0.12-0.06-0.25-0.07z"/>
		<path class="s1" d="m489.61 327.31q0 0.15 0.08 0.27 0.08 0.12 0.22 0.18 0.14 0.05 0.28 0.01 0.15-0.04 0.24-0.16 4.49-5.37 11.82-5.69c5.87-0.25 11.7 0.95 14.4 6.79q0.05 0.09 0.13 0.16 0.08 0.06 0.19 0.07 0.1 0.02 0.2-0.02 0.1-0.03 0.17-0.11 8.87-9.91 22.37-5.7c6.25 1.94 8.51 9.25 8.77 15.15q0.45 10.3-0.04 26.37-0.01 0.22-0.1 0.43-0.09 0.21-0.25 0.36-0.16 0.16-0.37 0.25-0.21 0.08-0.43 0.08h-6.21q-0.23 0-0.44-0.09-0.22-0.08-0.38-0.25-0.16-0.16-0.26-0.37-0.09-0.21-0.09-0.44-0.13-7.65-0.32-25.56c-0.09-7.31-5.34-10.94-12.33-9.44-5.3 1.14-7.75 6.34-7.86 11.4q-0.27 11.91 0.03 23.37 0.01 0.28-0.09 0.54-0.11 0.27-0.31 0.47-0.19 0.2-0.45 0.31-0.27 0.11-0.55 0.11h-6.02q-0.28 0-0.54-0.11-0.26-0.11-0.45-0.31-0.2-0.2-0.3-0.47-0.1-0.26-0.09-0.54 0.44-12.29-0.01-24.24c-0.23-6.15-2.62-11.04-9.59-10.76q-10.38 0.42-10.56 12.36-0.22 14.7-0.12 22.82 0 0.23-0.08 0.45-0.09 0.21-0.25 0.38-0.16 0.16-0.38 0.25-0.21 0.09-0.44 0.09h-6.31q-0.24 0-0.47-0.09-0.22-0.1-0.39-0.27-0.17-0.17-0.27-0.39-0.09-0.23-0.09-0.47v-40.41q0-0.24 0.09-0.47 0.1-0.22 0.27-0.39 0.17-0.17 0.39-0.27 0.23-0.09 0.47-0.09h5.56q0.23 0 0.44 0.09 0.22 0.09 0.38 0.25 0.16 0.17 0.25 0.38 0.09 0.22 0.09 0.45z"/>
		<path class="s1" d="m568.15 363.28v17.24q0 0.22-0.08 0.42-0.09 0.21-0.25 0.36-0.15 0.16-0.36 0.25-0.2 0.08-0.42 0.08h-6.29q-0.25 0-0.49-0.1-0.23-0.09-0.41-0.27-0.18-0.18-0.27-0.41-0.1-0.24-0.1-0.49v-56.27q0-0.27 0.1-0.52 0.11-0.24 0.3-0.43 0.19-0.19 0.43-0.3 0.25-0.1 0.52-0.1h5.29q0.29 0 0.56 0.11 0.27 0.11 0.48 0.32 0.21 0.21 0.32 0.48 0.11 0.27 0.11 0.56v3.27q0 0.13 0.08 0.24 0.08 0.1 0.2 0.14 0.12 0.05 0.25 0.01 0.13-0.03 0.21-0.13c4.58-5.7 11.53-6.55 18.58-5.63 6.88 0.9 11.29 4.77 13.7 11.28 2.86 7.75 1.86 16.22-0.94 23.82-3.81 10.32-18.17 10.77-26.85 7.62q-0.86-0.31-4.03-1.93-0.1-0.05-0.22-0.05-0.11 0-0.21 0.06-0.1 0.06-0.16 0.16-0.05 0.1-0.05 0.21zm24.37-23.02c-0.25-3.97-1.46-8.37-5.24-9.83-6.27-2.43-16.26-1.59-18.35 6.3-1.17 4.41-2.23 13.5 0.84 17.68 2.94 4 8.63 5.11 13.11 5 11.02-0.28 10.14-11.11 9.64-19.15z"/>
		<path class="s1" d="m642.43 352.95q0.05-0.27 0.18-0.51 0.14-0.23 0.34-0.41 0.21-0.17 0.46-0.27 0.26-0.09 0.53-0.09h6.25q0.29 0 0.56 0.12 0.26 0.13 0.45 0.35 0.19 0.23 0.26 0.52 0.07 0.28 0.02 0.57-2.15 11.39-13.71 13.04-9.07 1.29-17.45-1.12c-6.73-1.94-9.72-8.53-10.32-14.9q-0.2-2.01-0.18-9.51 0.01-7.66 4.97-13.47c4.96-5.81 15-6.17 22.2-4.95 12.56 2.14 15.09 12.69 14.28 23.67q-0.01 0.16-0.08 0.31-0.07 0.15-0.19 0.26-0.12 0.11-0.27 0.17-0.16 0.06-0.32 0.06h-30.78q-0.13 0-0.25 0.05-0.13 0.05-0.22 0.14-0.1 0.09-0.15 0.21-0.05 0.12-0.06 0.25c-0.45 11.55 7.69 12.86 16.59 11.81q5.94-0.71 6.89-6.3zm-22.62-13.13l21.78 0.19q0.17 0 0.34-0.06 0.16-0.07 0.29-0.19 0.12-0.12 0.19-0.28 0.07-0.17 0.07-0.34l0.01-0.75c0.01-1.22-0.22-2.43-0.69-3.56-0.46-1.13-1.15-2.16-2.01-3.03-0.87-0.87-1.9-1.57-3.04-2.04-1.14-0.48-2.36-0.73-3.6-0.74l-4.7-0.04c-1.24-0.01-2.46 0.22-3.61 0.68-1.15 0.45-2.19 1.13-3.07 1.98-0.89 0.86-1.59 1.88-2.07 3-0.49 1.12-0.74 2.33-0.75 3.55l-0.01 0.75q0 0.17 0.07 0.33 0.06 0.17 0.18 0.29 0.13 0.12 0.29 0.19 0.16 0.07 0.33 0.07z"/>
		<path class="s1" d="m690.22 351.61h6.44q0.26 0 0.5 0.08 0.25 0.09 0.45 0.24 0.21 0.16 0.35 0.38 0.14 0.21 0.21 0.46c0.31 1.22 0.46 2.51 1.22 3.79 2.36 3.99 12.41 3.2 16.07 2.69q5.29-0.75 5.16-5.94c-0.05-2.01-0.13-3.78-2.14-4.63q-2.36-0.99-3.34-1.05c-7.6-0.49-21.42 0.39-23.53-9.71q-0.76-3.63-0.24-6.79c0.68-4.16 5.25-7.36 9.18-8.28 10.26-2.4 25.63-2.08 27.82 11.02q0.05 0.33-0.03 0.66-0.1 0.32-0.31 0.58-0.22 0.26-0.53 0.4-0.3 0.14-0.64 0.14h-5.14q-0.35 0-0.68-0.12-0.33-0.11-0.61-0.33-0.27-0.22-0.46-0.51-0.19-0.3-0.27-0.64-1.01-4.32-6.1-4.94c-3.42-0.42-8.75-0.29-11.46 0.81q-2.31 0.93-2.66 4.06-0.44 3.95 3.4 4.9 3.32 0.82 10.15 1.04c6.55 0.22 15.14 2.76 16.02 10.73q1.53 13.73-12.09 15.61c-7.45 1.02-16.7 0.9-22.73-3.81q-4.06-3.16-4.84-9.91-0.02-0.18 0.03-0.35 0.06-0.17 0.17-0.3 0.12-0.13 0.29-0.21 0.16-0.07 0.34-0.07z"/>
		<path class="s1" d="m668.96 327.97q0 0.12 0.07 0.22 0.07 0.09 0.18 0.13 0.12 0.03 0.24-0.01 0.11-0.04 0.18-0.14 5.61-8.11 15.91-5.59 0.13 0.03 0.24 0.1 0.11 0.07 0.19 0.18 0.08 0.1 0.12 0.22 0.04 0.12 0.04 0.25v5.39q0 0.21-0.08 0.4-0.08 0.2-0.22 0.35-0.14 0.15-0.33 0.24-0.19 0.08-0.4 0.09c-5.53 0.24-10.72 0.46-13.88 5.41q-1.68 2.64-1.68 10.33 0.02 15.17 0.1 18.77 0.01 0.31-0.1 0.59-0.11 0.28-0.32 0.5-0.22 0.22-0.5 0.34-0.28 0.12-0.58 0.12h-5.74q-0.32 0-0.62-0.12-0.29-0.13-0.52-0.35-0.22-0.23-0.35-0.52-0.12-0.3-0.12-0.62v-39.84q0-0.33 0.13-0.64 0.12-0.31 0.36-0.54 0.23-0.24 0.54-0.36 0.31-0.13 0.64-0.13h4.87q0.32 0 0.62 0.12 0.3 0.13 0.53 0.36 0.23 0.23 0.36 0.53 0.12 0.3 0.12 0.63z"/>
	</g>
</svg>
